<!-- Generator: Adobe Illustrator 22.1.0, SVG Export Plug-In  -->
<svg version="1.1"
	 xmlns="http://www.w3.org/2000/svg" xmlns:xlink="http://www.w3.org/1999/xlink" xmlns:a="http://ns.adobe.com/AdobeSVGViewerExtensions/3.0/"
	 x="0px" y="0px" width="106.951px" height="106.341px" viewBox="0 0 106.951 106.341"
	 style="enable-background:new 0 0 106.951 106.341;" xml:space="preserve">
<style type="text/css">
	.st0{fill:#F6A500;}
</style>
<defs>
</defs>
<path class="st0" d="M106.295,43.422c-1.2-6.88-4.02-12.91-9.33-17.63c-2.11-1.86-4.39-3.46-6.96-4.73
	c0.11,2.14,0.61,3.07,2.15,4.13c0.43,0.29,0.85,0.58,1.26,0.9c6.41,5.01,10.2,11.4,10.05,19.72c-0.13,7.28-2.81,13.63-7.64,19.03
	c-6.31,7.07-14.38,9.85-23.69,9.33c-2.48-0.14-2.48-0.23-2.58-2.63c-0.01-0.11,0-0.21-0.02-0.31c-0.86-5.18,0.92-9.47,4.37-13.25
	c2.36-2.58,4.93-4.97,7.15-7.67c0.43-0.53,0.71-0.3,1.08,0c2.37,1.9,4.41,4.11,6.16,6.59c1.7,2.41,3.03,5.01,4.03,7.8
	c2.07-1.5,2.1-1.62,1.14-3.76c-0.23-0.53-0.48-1.06-0.74-1.58c-2.22-4.29-5.22-7.95-9.02-10.93c-0.58-0.45-0.62-0.74-0.18-1.29
	c0.54-0.7,1.01-1.47,1.46-2.24c3.29-5.58,4.76-11.58,3.78-18.02c-1.13-7.5-5.04-13.46-10.75-18.28c-5.71-4.81-12.38-7.39-19.78-8.32
	c-9.34-1.18-17.47,1.34-24.45,7.65c-0.18,0.16-0.5,0.27-0.41,0.68c0.41,0,0.84-0.08,1.22,0.02c1.4,0.38,2.41-0.2,3.53-0.99
	c7.59-5.39,15.7-6.79,24.44-2.99c10.59,4.6,19.2,16.78,17.13,30.24c-0.45,2.97-1.19,5.83-2.49,8.54c-0.3,0.64-0.6,0.89-1.31,0.55
	c-0.61-0.29-1.29-0.51-1.95-0.62c-4.96-0.84-8.48-3.65-10.91-7.93c-1.58-2.8-3.08-5.65-4.67-8.45c-0.36-0.62-0.29-0.9,0.3-1.28
	c2.87-1.86,5.95-3.23,9.24-4.13c2.34-0.64,4.72-0.99,7.21-1.1c-0.1-0.25-0.14-0.42-0.22-0.56c-0.2-0.4-0.44-0.78-0.61-1.19
	c-0.23-0.6-0.66-0.67-1.23-0.61c-5.12,0.49-9.91,2-14.33,4.64c-0.7,0.42-1.44,1.21-2.09,1.15c-0.69-0.07-1.02-1.18-1.52-1.82
	c-8.09-10.43-20.51-13.82-32.71-8.83c-8.82,3.61-15,9.99-19.1,18.5c-3.15,6.55-4.24,13.34-2.43,20.47c0.63,2.51,1.51,4.92,2.79,7.26
	c1.34-2.43,1.31-2.57,0.52-4.91c-2.74-8.05-2.61-15.88,2.65-22.89c7.02-9.34,16.6-13.21,28.13-11.67
	c6.05,0.81,11.27,3.68,15.61,8.06c0.64,0.65,0.67,1.09,0.04,1.74c-0.51,0.54-0.92,1.2-1.28,1.86c-2.15,3.94-5.48,6.28-9.79,7.37
	c-3.59,0.9-7.28,1.27-10.87,2.16c-0.75,0.19-1.02,0-1.21-0.71c-0.8-2.92-1.18-5.9-1.17-8.93c0.02-2.86,0.4-5.67,1.17-8.42
	c0.07-0.25,0.39-0.58-0.07-0.76c-0.86-0.34-2.43,0.49-2.65,1.38c-1.42,5.81-1.33,11.6,0.37,17.35c0.22,0.76,0.07,1.02-0.67,1.26
	c-5.67,1.8-10.47,4.93-14.11,9.67c-5.29,6.9-6.42,14.79-4.81,23.1c2.02,10.37,7.86,18.26,16.56,24.05
	c6.28,4.18,13.3,5.14,20.92,4.02c-0.71-0.57-1.24-0.94-1.69-1.39c-0.58-0.58-1.21-0.75-2.03-0.7c-1.64,0.12-3.28,0.06-4.92-0.14
	c-6.81-0.84-12.52-3.68-16.63-9.3c-4.97-6.81-6.56-14.48-5.1-22.7c1.61-9.01,6.79-15.53,14.73-19.95c0.73-0.41,1.21-0.42,1.63,0.39
	c0.27,0.51,0.65,0.97,1.06,1.39c3.43,3.51,4.58,7.79,4.07,12.56c-0.37,3.43-0.87,6.86-1.27,10.29c-0.07,0.6-0.24,0.85-0.87,0.78
	c-1.16-0.14-2.33-0.15-3.48-0.32c-4.56-0.68-8.81-2.23-12.69-4.73c-0.19-0.12-0.38-0.38-0.64-0.2c-0.53,0.37-0.29,2.55,0.32,2.92
	c4.91,2.96,10.24,4.55,15.96,4.75c0.97,0.04,1.26,0.24,1.25,1.25c-0.06,6.48,1.74,12.42,5.76,17.51
	c5.53,7.03,13.13,10.1,21.84,10.65c7.27,0.46,14.03-1.41,20.38-4.91c7.99-4.41,13.09-10.97,15.13-19.87
	c0.16-0.72,0.44-1.43,0.25-2.29c-0.48,0.31-0.88,0.64-1.34,0.85c-1.02,0.46-1.42,1.27-1.72,2.33c-1.79,6.31-5.11,11.64-10.87,15.02
	c-7.47,4.38-15.44,4.67-23.48,1.87c-10.16-3.55-16.16-10.89-18.61-21.25c-0.43-1.84-0.37-1.85,1.39-2.46
	c0.36-0.12,0.72-0.25,1.05-0.41c4.15-2.02,8.31-1.95,12.53-0.22c3.48,1.43,6.76,3.32,10.24,4.74c0.68,0.27,0.39,0.66,0.25,1.07
	c-1.12,3.12-2.74,5.96-4.76,8.59c-1.6,2.09-3.46,3.93-5.62,5.65c0.52,0.26,0.94,0.42,1.29,0.67c0.82,0.59,1.43,0.36,2.13-0.28
	c4.2-3.79,7.32-8.31,9.22-13.65c0.29-0.81,0.6-0.9,1.37-0.64c4.25,1.4,8.6,1.89,13.07,1.28c8.46-1.16,14.71-5.69,19.23-12.72
	C106.595,61.592,107.925,52.762,106.295,43.422z M66.765,69.272c0.23,1.18,0.43,2.36,0.28,3.64c-1.22-0.3-2.32-0.83-3.45-1.29
	c-2.54-1.01-5.08-2.01-7.83-2.35c-4.02-0.51-7.74,0.48-11.33,2.18c-1.26,0.6-2.49,1.29-3.8,1.79c-0.81,0.31-0.93,0.05-0.88-0.69
	c0.15-1.94,0.28-3.89,0.39-5.84c0.32-6.05-1.91-11.09-6.12-15.35c-1.1-1.11-2.3-2.15-3.18-3.64c2.17-0.57,4.22-1.13,6.27-1.65
	c5.96-1.5,10.16-5.14,12.96-10.54c0.8-1.54,1.5-3.15,2.77-4.52c0.8,1.28,1.63,2.49,2.36,3.76c3.65,6.4,9.21,9.84,16.47,10.65
	c0.99,0.11,1.95,0.37,2.9,0.67c0.67,0.21,0.69,0.47,0.26,0.97c-1.2,1.41-2.33,2.88-3.54,4.27
	C66.765,56.562,65.495,62.592,66.765,69.272z"/>
</svg>